<?xml version="1.0" standalone="no"?>
<!DOCTYPE svg PUBLIC "-//W3C//DTD SVG 20010904//EN"
 "http://www.w3.org/TR/2001/REC-SVG-20010904/DTD/svg10.dtd">
<svg version="1.0" xmlns="http://www.w3.org/2000/svg"
 width="512.000000pt" height="512.000000pt" viewBox="0 0 512.000000 512.000000"
 preserveAspectRatio="xMidYMid meet">

<g transform="translate(0.000000,512.000000) scale(0.100000,-0.100000)"
fill="#000000" stroke="none">
<path d="M208 4796 c-95 -25 -173 -104 -198 -197 -7 -24 -9 -755 -8 -2060 l3
-2024 22 -41 c36 -67 70 -101 131 -131 l57 -28 395 -3 c217 -2 405 0 417 3 33
8 63 41 63 69 0 13 -9 35 -20 49 l-21 26 -407 3 c-373 3 -409 4 -434 21 -62
42 -58 -68 -58 1646 l0 1561 1988 0 1989 0 21 23 c31 33 29 80 -4 106 l-27 21
-1983 0 -1984 0 0 350 c0 374 2 393 50 435 21 19 40 20 287 25 l265 5 25 29
c29 35 25 69 -13 104 -25 22 -30 22 -267 21 -162 0 -258 -5 -289 -13z"/>
<path d="M1026 4788 c-38 -35 -42 -69 -13 -104 l25 -29 1930 -5 1930 -5 26
-24 c14 -14 30 -41 36 -60 6 -21 10 -183 10 -378 l0 -343 -275 0 -276 0 -24
-25 c-30 -30 -32 -64 -4 -99 l20 -26 280 0 279 0 0 -1561 c0 -1755 6 -1613
-74 -1650 -39 -18 -110 -19 -1802 -19 l-1761 0 -21 -23 c-27 -29 -28 -67 -3
-98 l19 -24 1789 0 1788 0 57 28 c61 30 95 64 131 131 l22 41 0 2045 0 2045
-22 41 c-36 67 -70 101 -131 131 l-57 28 -1927 3 -1927 2 -25 -22z"/>
<path d="M490 4475 c-203 -64 -227 -345 -37 -440 130 -64 287 1 333 137 42
128 -30 264 -160 303 -60 18 -77 18 -136 0z"/>
<path d="M1155 4481 c-108 -28 -185 -122 -185 -227 0 -140 101 -244 238 -244
241 0 326 328 115 442 -53 29 -122 41 -168 29z m110 -176 c47 -46 24 -125 -42
-141 -53 -14 -113 46 -99 99 16 67 94 90 141 42z"/>
<path d="M1778 4475 c-103 -33 -180 -155 -163 -258 14 -84 75 -161 151 -193
77 -32 205 -4 261 57 57 62 80 180 49 253 -48 115 -181 178 -298 141z m130
-165 c46 -43 37 -107 -19 -139 -52 -29 -119 13 -119 74 0 72 87 113 138 65z"/>
<path d="M2305 4478 c-42 -24 -44 -36 -45 -231 0 -186 0 -188 25 -212 l24 -25
1221 0 1221 0 24 25 c25 24 25 26 25 214 l0 189 -31 26 -31 26 -1206 0 c-889
-1 -1212 -4 -1227 -12z m2345 -233 l0 -85 -1120 0 -1120 0 0 85 0 85 1120 0
1120 0 0 -85z"/>
<path d="M1153 3008 c-46 -22 -44 -43 27 -402 51 -256 72 -342 86 -357 29 -28
74 -33 110 -11 28 18 36 37 94 226 35 113 67 206 70 206 3 0 33 -89 66 -197
67 -224 81 -248 143 -248 74 0 76 5 147 361 35 175 64 335 64 355 0 29 -6 43
-26 58 -34 27 -57 26 -89 -1 -22 -20 -30 -47 -65 -222 -22 -110 -41 -201 -43
-203 -2 -1 -30 84 -62 190 -32 105 -64 202 -72 215 -21 35 -56 47 -91 33 -36
-15 -35 -12 -107 -248 -33 -106 -60 -191 -62 -189 -2 1 -21 92 -43 202 -35
175 -43 202 -65 222 -28 24 -48 26 -82 10z"/>
<path d="M2164 2997 c-21 -18 -27 -32 -26 -58 1 -19 30 -177 66 -352 71 -356
73 -362 146 -362 26 0 47 7 60 20 11 12 44 101 81 223 35 111 65 202 69 202 3
0 34 -91 68 -202 38 -122 70 -211 82 -223 13 -13 34 -20 60 -20 73 0 75 6 146
362 36 175 65 333 66 352 1 26 -5 40 -26 58 -34 29 -58 29 -91 1 -22 -20 -30
-47 -65 -222 -22 -110 -41 -201 -43 -203 -2 -1 -31 88 -65 200 -64 208 -85
247 -131 247 -48 0 -66 -33 -131 -244 -35 -113 -65 -204 -67 -202 -2 1 -21 92
-43 202 -35 175 -43 202 -65 222 -33 28 -57 28 -91 -1z"/>
<path d="M3186 2999 c-20 -15 -26 -29 -26 -57 0 -20 29 -180 64 -355 71 -356
73 -362 146 -362 26 0 47 7 60 20 11 12 45 102 82 223 34 111 65 202 68 202 4
0 34 -91 69 -202 37 -122 70 -211 81 -223 13 -13 34 -20 60 -20 73 0 75 6 146
362 36 175 65 333 66 352 1 26 -5 40 -26 58 -34 29 -58 29 -91 1 -22 -20 -30
-47 -65 -222 -22 -110 -41 -201 -43 -203 -2 -1 -30 84 -62 190 -71 231 -71
232 -102 246 -33 15 -47 14 -75 -8 -19 -15 -38 -64 -88 -225 -35 -113 -65
-204 -67 -202 -2 1 -21 92 -43 202 -35 175 -43 202 -65 222 -32 27 -55 28 -89
1z"/>
<path d="M4203 2395 c-32 -32 -35 -39 -30 -78 12 -85 107 -118 168 -58 63 64
16 171 -77 171 -16 0 -39 -13 -61 -35z"/>
<path d="M3316 2017 l-26 -26 0 -420 c0 -291 3 -428 11 -445 7 -13 25 -30 41
-37 29 -12 56 -2 175 67 17 10 34 16 36 14 2 -3 44 -75 93 -160 99 -172 113
-190 149 -190 27 0 292 146 333 183 39 36 29 69 -73 246 -53 90 -94 165 -93
166 2 1 40 23 85 49 44 26 84 54 87 62 11 28 6 62 -11 82 -26 30 -713 423
-750 429 -25 4 -37 0 -57 -20z m365 -323 c120 -70 219 -129 219 -133 0 -3 -22
-19 -50 -34 -53 -30 -70 -51 -70 -89 0 -13 43 -97 95 -187 53 -90 94 -165 93
-166 -13 -12 -126 -75 -134 -75 -6 0 -53 72 -104 160 -50 89 -103 168 -116
177 -28 18 -60 12 -115 -22 -21 -14 -41 -25 -44 -25 -3 0 -5 117 -5 260 0 143
3 260 6 260 3 0 105 -57 225 -126z"/>
</g>
</svg>
